<svg t="1594801995286" class="icon" viewBox="0 0 1024 1024" version="1.1" xmlns="http://www.w3.org/2000/svg" p-id="2219" width="200" height="200"><path d="M906.039 547.75h-54.075c-21.257-180.563-165.817-321.213-338.75-321.213-172.693 0-317.506 140.8-338.768 321.213H120.36c-63.307 0-114.839 54.6-114.839 121.778v133.307c0 67.118 51.532 121.779 114.839 121.779h83.138a31.714 31.714 0 0 0 22.435-9.295 31.82 31.82 0 0 0 9.296-22.435l-0.032-90.049 0.007-53.574c0.01-0.32 0.025-0.64 0.025-0.963 0-1.797 0-155.183 0.03-159.647 2.48-164.665 127.172-298.653 277.955-298.653 151.403 0 276.095 134.546 277.956 299.957 0.027 4.155 0.03 129.704 0.03 154.223v148.706c0 17.539 14.192 31.73 31.731 31.73h83.108c63.338 0 114.87-54.661 114.87-121.779V669.53c0-67.18-51.532-121.78-114.87-121.78zM120.36 861.153c-28.323 0-51.377-26.153-51.377-58.317V669.53c0-32.163 23.054-58.316 51.377-58.316h51.407l-0.03 58.316 0.03 191.626H120.36z m837.087-58.317c0 32.165-23.054 58.317-51.408 58.317h-51.376V611.212h51.376c28.354 0 51.408 26.154 51.408 58.316v133.308z" fill="#ffffff" p-id="2220"></path></svg>