<svg t="1594549461081" class="icon" viewBox="0 0 1024 1024" version="1.1" xmlns="http://www.w3.org/2000/svg" p-id="5929" width="200" height="200"><path d="M837.94963 63.771419l-480.022705 91.924619c-24.899086 4.765537-42.910299 26.650987-42.910299 52.131311l0 141.828192 0 368.633778c-38.420031-15.4509-88.705298-15.560394-137.551796 3.234671C93.507674 753.831814 45.613874 829.742714 70.490447 891.075595c24.87555 61.333904 113.103987 84.86483 197.063191 52.55803 70.829162-27.255761 115.990734-85.544305 113.446795-139.933029L381.000434 337.019757l422.298002-80.868819 0 356.641653c-38.417985-15.541975-88.763626-15.690354-137.665383 3.142573-83.890642 32.307823-131.748626 108.219747-106.890472 169.551604 24.856108 61.333904 113.012913 84.863806 196.906625 52.55803 69.5224-26.773783 114.294093-83.493599 113.445772-137.045259l0.187265-0.057305L869.282243 243.515153 869.282243 89.838098C869.282243 73.192999 854.214059 60.658522 837.94963 63.771419z" p-id="5930" fill="#707070"></path></svg>