<svg t="1594307274424" class="icon" viewBox="0 0 1024 1024" version="1.1" xmlns="http://www.w3.org/2000/svg" p-id="4901" width="200" height="200"><path d="M950.4 905.6l-153.6-153.6c64-76.8 99.2-169.6 99.2-272 0-112-44.8-214.4-121.6-294.4C611.2 22.4 348.8 22.4 185.6 185.6 108.8 265.6 64 368 64 480c0 112 44.8 214.4 121.6 294.4C265.6 854.4 374.4 896 480 896c96 0 192-35.2 268.8-99.2l153.6 153.6c6.4 6.4 16 9.6 22.4 9.6s16-3.2 22.4-9.6c16-12.8 16-32 3.2-44.8zM480 832c-92.8 0-182.4-35.2-249.6-102.4C163.2 662.4 128 572.8 128 480c0-92.8 35.2-182.4 102.4-249.6C300.8 163.2 390.4 128 480 128s179.2 35.2 249.6 102.4C796.8 297.6 832 387.2 832 480c0 92.8-35.2 182.4-102.4 249.6-67.2 67.2-156.8 102.4-249.6 102.4z" fill="#ffffff" p-id="4902"></path></svg>