<svg t="1594559716242" class="icon" viewBox="0 0 1024 1024" version="1.1" xmlns="http://www.w3.org/2000/svg" p-id="4283" width="200" height="200"><path d="M360.448 351.232a29.696 29.696 0 0 0-42.24 0 232.192 232.192 0 0 0 0 328.704 29.952 29.952 0 0 0 42.24-42.24 172.8 172.8 0 0 1 0-244.224 29.696 29.696 0 0 0 0-42.24zM428.544 515.584a89.088 89.088 0 1 0 89.088-89.088 89.088 89.088 0 0 0-89.088 89.088z m89.088-35.328a35.328 35.328 0 1 1-35.328 35.328 35.328 35.328 0 0 1 35.328-35.328z" p-id="4284"></path><path d="M181.76 778.24a29.952 29.952 0 0 0 42.24-42.24 312.064 312.064 0 0 1 0-440.832A29.952 29.952 0 1 0 181.76 252.928a370.944 370.944 0 0 0 0 525.056zM674.56 637.696A29.952 29.952 0 1 0 716.8 679.936a232.192 232.192 0 0 0 0-328.704 29.952 29.952 0 1 0-42.496 42.24 172.544 172.544 0 0 1 0 244.224z" p-id="4285"></path><path d="M934.912 375.808a366.848 366.848 0 0 0-81.408-122.88 29.952 29.952 0 0 0-42.496 42.24 311.552 311.552 0 0 1 0 440.832 29.952 29.952 0 0 0 42.496 42.496 372.224 372.224 0 0 0 81.408-402.688z" p-id="4286"></path></svg>