<svg t="1594555123844" class="icon" viewBox="0 0 1024 1024" version="1.1" xmlns="http://www.w3.org/2000/svg" p-id="3597" width="200" height="200"><path d="M201.783703 343.233272c-7.476275 0-14.900362 3.062755-20.185738 8.330736-5.282307 5.266957-8.361435 12.667507-8.361435 20.111036 0 7.447623 3.078105 14.849196 8.361435 20.116154 5.2864 5.266957 12.710486 8.334829 20.185738 8.334829s14.903431-3.067872 20.190854-8.334829c5.282307-5.265934 8.361435-12.667507 8.361435-20.116154 0-7.442506-3.078105-14.84408-8.361435-20.111036-5.287423-5.26798-12.716626-8.330736-20.190854-8.330736z m732.741473-66.963111c-19.105127-11.93789-44.272319-11.93789-69.062935 0l-182.55578 87.840604v-36.207643c0-54.04387-44.134173-98.013291-98.382704-98.013291H157.830655c-54.248531 0-98.382705 43.969421-98.382705 98.013291v368.19478c0 54.039777 44.134173 98.013291 98.382705 98.013291h426.698218c54.244438 0 98.377588-43.969421 98.377588-98.013291v-36.064381l182.619225 88.644923c12.470009 6.051833 25.028023 9.06854 36.872792 9.06854 11.686157 0 22.663162-2.934842 32.150234-8.857739 19.063171-11.902074 30.003338-34.46086 30.003338-61.926398V338.233398c0.001023-27.442002-10.956539-50.0233-30.026874-61.963237zM643.554198 696.097902c0 32.422434-26.481118 58.807361-59.030441 58.80736H157.825538c-32.54523 0-59.025325-26.38902-59.025325-58.80736V327.903122c0-32.41834 26.481118-58.808384 59.025325-58.808384h426.698219c32.54523 0 59.030441 26.390044 59.030441 58.808384v368.19478z m281.646612-9.129938c0 13.642718-4.211928 24.088628-11.528568 28.65769-7.364735 4.546549-18.614963 3.742231-30.912033-2.218528l-199.852724-97.015567V407.629931l199.658295-96.058776c12.33391-5.913687 23.669072-6.704702 31.023574-2.093685 7.383154 4.606925 11.612479 15.093766 11.612479 28.753881l-0.001023 348.736613z" p-id="3598"></path></svg>