<svg t="1594375027595" class="icon" viewBox="0 0 1024 1024" version="1.1" xmlns="http://www.w3.org/2000/svg" p-id="5856" width="200" height="200"><path d="M910.2336 1024H113.7664C51.2 1024 0 972.8 0 910.2336V113.7664C0 51.2 51.2 0 113.7664 0h796.4672C972.8 0 1024 51.2 1024 113.7664v796.4672C1024 972.8 972.8 1024 910.2336 1024z" fill="#880E4F" p-id="5857"></path><path d="M281.6 597.3248l59.7248-258.816h79.6416l-102.4 358.4H244.6336l-102.4-358.4h79.616zM557.5168 696.8832H486.4v-358.4h71.1168zM716.8 571.7248v125.184h-71.1168v-358.4H768c105.2416 0 116.6336 96.6912 116.6336 119.4496 0 34.1248-14.2336 113.7664-116.6336 113.7664h-51.2z m0-62.5664h48.3584c36.9664 0 42.6752-31.2832 42.6752-54.0416 0-45.5168-25.6-59.7504-42.6752-59.7504H716.8v113.792z" fill="#FFD54F" p-id="5858"></path></svg>